<mxfile host="app.diagrams.net" agent="Mozilla/5.0 (Windows NT 10.0; Win64; x64) AppleWebKit/537.36 (KHTML, like Gecko) Chrome/128.0.0.0 Safari/537.36 OPR/114.0.0.0" version="24.8.3">
  <diagram name="Страница — 1" id="ouvKmubcb5cq9dIh8wAJ">
    <mxGraphModel dx="1380" dy="739" grid="1" gridSize="10" guides="1" tooltips="1" connect="1" arrows="1" fold="1" page="1" pageScale="1" pageWidth="827" pageHeight="1169" math="0" shadow="0">
      <root>
        <mxCell id="0" />
        <mxCell id="1" parent="0" />
        <mxCell id="7mVrHE8WKBVnpHIlnkF9-4" value="" style="edgeStyle=orthogonalEdgeStyle;rounded=0;orthogonalLoop=1;jettySize=auto;html=1;" edge="1" parent="1" source="7mVrHE8WKBVnpHIlnkF9-1" target="7mVrHE8WKBVnpHIlnkF9-3">
          <mxGeometry relative="1" as="geometry" />
        </mxCell>
        <mxCell id="7mVrHE8WKBVnpHIlnkF9-1" value="Начало" style="strokeWidth=2;html=1;shape=mxgraph.flowchart.terminator;whiteSpace=wrap;" vertex="1" parent="1">
          <mxGeometry x="364" y="40" width="100" height="60" as="geometry" />
        </mxCell>
        <mxCell id="7mVrHE8WKBVnpHIlnkF9-2" value="&lt;div&gt;#include &amp;lt;iostream&amp;gt;&lt;/div&gt;&lt;div&gt;#include &amp;lt;locale&amp;gt;&lt;/div&gt;" style="strokeWidth=2;html=1;shape=mxgraph.flowchart.annotation_2;align=left;labelPosition=right;pointerEvents=1;" vertex="1" parent="1">
          <mxGeometry x="464" y="20" width="50" height="100" as="geometry" />
        </mxCell>
        <mxCell id="7mVrHE8WKBVnpHIlnkF9-14" value="" style="edgeStyle=orthogonalEdgeStyle;rounded=0;orthogonalLoop=1;jettySize=auto;html=1;" edge="1" parent="1" source="7mVrHE8WKBVnpHIlnkF9-3" target="7mVrHE8WKBVnpHIlnkF9-13">
          <mxGeometry relative="1" as="geometry" />
        </mxCell>
        <mxCell id="7mVrHE8WKBVnpHIlnkF9-3" value="extern double conversionFactor = 9.0 / 5.0;" style="whiteSpace=wrap;html=1;strokeWidth=2;" vertex="1" parent="1">
          <mxGeometry x="296" y="150" width="236" height="50" as="geometry" />
        </mxCell>
        <mxCell id="7mVrHE8WKBVnpHIlnkF9-16" value="" style="edgeStyle=orthogonalEdgeStyle;rounded=0;orthogonalLoop=1;jettySize=auto;html=1;" edge="1" parent="1" source="7mVrHE8WKBVnpHIlnkF9-13" target="7mVrHE8WKBVnpHIlnkF9-15">
          <mxGeometry relative="1" as="geometry" />
        </mxCell>
        <mxCell id="7mVrHE8WKBVnpHIlnkF9-13" value="setlocale(LC_ALL, &quot;Rus&quot;);" style="whiteSpace=wrap;html=1;strokeWidth=2;" vertex="1" parent="1">
          <mxGeometry x="336" y="230" width="156" height="65" as="geometry" />
        </mxCell>
        <mxCell id="7mVrHE8WKBVnpHIlnkF9-18" value="" style="edgeStyle=orthogonalEdgeStyle;rounded=0;orthogonalLoop=1;jettySize=auto;html=1;" edge="1" parent="1" source="7mVrHE8WKBVnpHIlnkF9-15" target="7mVrHE8WKBVnpHIlnkF9-17">
          <mxGeometry relative="1" as="geometry" />
        </mxCell>
        <mxCell id="7mVrHE8WKBVnpHIlnkF9-15" value="auto celsius = 0.0;" style="whiteSpace=wrap;html=1;strokeWidth=2;" vertex="1" parent="1">
          <mxGeometry x="354" y="320" width="120" height="60" as="geometry" />
        </mxCell>
        <mxCell id="7mVrHE8WKBVnpHIlnkF9-20" value="" style="edgeStyle=orthogonalEdgeStyle;rounded=0;orthogonalLoop=1;jettySize=auto;html=1;" edge="1" parent="1" source="7mVrHE8WKBVnpHIlnkF9-17" target="7mVrHE8WKBVnpHIlnkF9-19">
          <mxGeometry relative="1" as="geometry" />
        </mxCell>
        <mxCell id="7mVrHE8WKBVnpHIlnkF9-17" value="cout &amp;lt;&amp;lt; &quot;Введите температуру в градусах Цельсия: &quot;;" style="shape=parallelogram;perimeter=parallelogramPerimeter;whiteSpace=wrap;html=1;fixedSize=1;strokeWidth=2;" vertex="1" parent="1">
          <mxGeometry x="241" y="410" width="346" height="50" as="geometry" />
        </mxCell>
        <mxCell id="7mVrHE8WKBVnpHIlnkF9-22" value="" style="edgeStyle=orthogonalEdgeStyle;rounded=0;orthogonalLoop=1;jettySize=auto;html=1;" edge="1" parent="1" source="7mVrHE8WKBVnpHIlnkF9-19" target="7mVrHE8WKBVnpHIlnkF9-21">
          <mxGeometry relative="1" as="geometry" />
        </mxCell>
        <mxCell id="7mVrHE8WKBVnpHIlnkF9-19" value="cin &amp;gt;&amp;gt; celsius;" style="shape=parallelogram;perimeter=parallelogramPerimeter;whiteSpace=wrap;html=1;fixedSize=1;strokeWidth=2;" vertex="1" parent="1">
          <mxGeometry x="354" y="490" width="120" height="60" as="geometry" />
        </mxCell>
        <mxCell id="7mVrHE8WKBVnpHIlnkF9-24" value="" style="edgeStyle=orthogonalEdgeStyle;rounded=0;orthogonalLoop=1;jettySize=auto;html=1;" edge="1" parent="1" source="7mVrHE8WKBVnpHIlnkF9-21" target="7mVrHE8WKBVnpHIlnkF9-23">
          <mxGeometry relative="1" as="geometry" />
        </mxCell>
        <mxCell id="7mVrHE8WKBVnpHIlnkF9-21" value="register double intermediate = celsius * conversionFactor;" style="whiteSpace=wrap;html=1;strokeWidth=2;" vertex="1" parent="1">
          <mxGeometry x="256" y="584.5" width="316" height="60" as="geometry" />
        </mxCell>
        <mxCell id="7mVrHE8WKBVnpHIlnkF9-26" value="" style="edgeStyle=orthogonalEdgeStyle;rounded=0;orthogonalLoop=1;jettySize=auto;html=1;" edge="1" parent="1" source="7mVrHE8WKBVnpHIlnkF9-23" target="7mVrHE8WKBVnpHIlnkF9-25">
          <mxGeometry relative="1" as="geometry" />
        </mxCell>
        <mxCell id="7mVrHE8WKBVnpHIlnkF9-23" value="static double fahrenheit = intermediate + 32;" style="whiteSpace=wrap;html=1;strokeWidth=2;" vertex="1" parent="1">
          <mxGeometry x="291" y="680" width="246" height="60" as="geometry" />
        </mxCell>
        <mxCell id="7mVrHE8WKBVnpHIlnkF9-28" value="" style="edgeStyle=orthogonalEdgeStyle;rounded=0;orthogonalLoop=1;jettySize=auto;html=1;" edge="1" parent="1" source="7mVrHE8WKBVnpHIlnkF9-25" target="7mVrHE8WKBVnpHIlnkF9-27">
          <mxGeometry relative="1" as="geometry" />
        </mxCell>
        <mxCell id="7mVrHE8WKBVnpHIlnkF9-25" value="cout &amp;lt;&amp;lt; &quot;Температура в градусах Фаренгейта: &quot; &amp;lt;&amp;lt; fahrenheit &amp;lt;&amp;lt; endl;" style="shape=parallelogram;perimeter=parallelogramPerimeter;whiteSpace=wrap;html=1;fixedSize=1;strokeWidth=2;" vertex="1" parent="1">
          <mxGeometry x="206" y="770" width="416" height="60" as="geometry" />
        </mxCell>
        <mxCell id="7mVrHE8WKBVnpHIlnkF9-27" value="return 0;" style="shape=parallelogram;perimeter=parallelogramPerimeter;whiteSpace=wrap;html=1;fixedSize=1;strokeWidth=2;" vertex="1" parent="1">
          <mxGeometry x="354" y="860" width="120" height="60" as="geometry" />
        </mxCell>
        <mxCell id="7mVrHE8WKBVnpHIlnkF9-29" value="Конец" style="strokeWidth=2;html=1;shape=mxgraph.flowchart.terminator;whiteSpace=wrap;" vertex="1" parent="1">
          <mxGeometry x="364" y="950" width="100" height="60" as="geometry" />
        </mxCell>
        <mxCell id="7mVrHE8WKBVnpHIlnkF9-30" style="edgeStyle=orthogonalEdgeStyle;rounded=0;orthogonalLoop=1;jettySize=auto;html=1;entryX=0.5;entryY=0;entryDx=0;entryDy=0;entryPerimeter=0;" edge="1" parent="1" source="7mVrHE8WKBVnpHIlnkF9-27" target="7mVrHE8WKBVnpHIlnkF9-29">
          <mxGeometry relative="1" as="geometry" />
        </mxCell>
      </root>
    </mxGraphModel>
  </diagram>
</mxfile>
